<?xml version="1.0" encoding="UTF-8" standalone="no"?>
<!DOCTYPE svg PUBLIC "-//W3C//DTD SVG 1.1//EN" "http://www.w3.org/Graphics/SVG/1.1/DTD/svg11.dtd">
<svg width="100%" height="100%" viewBox="0 0 5476 2871" version="1.1" xmlns="http://www.w3.org/2000/svg" xmlns:xlink="http://www.w3.org/1999/xlink" xml:space="preserve" xmlns:serif="http://www.serif.com/" style="fill-rule:evenodd;clip-rule:evenodd;stroke-linecap:round;stroke-linejoin:round;stroke-miterlimit:1.5;">
    <g transform="matrix(1,0,0,1,-565,-458)">
        <g transform="matrix(1.11111,0,0,0.857143,-853.018,269.966)">
            <g transform="matrix(1,0,0,1.75,-472.441,-3277.56)">
                <path d="M4960.63,2834.65L4960.63,3070.87C4960.63,3136.05 4889.18,3188.98 4801.18,3188.98L4057.09,3188.98C3969.08,3188.98 3897.64,3136.05 3897.64,3070.87L3897.64,2834.65C3897.64,2769.46 3969.08,2716.53 4057.09,2716.53L4801.18,2716.53C4889.18,2716.53 4960.63,2769.46 4960.63,2834.65Z" style="fill:rgb(235,235,235);stroke:rgb(242,13,13);stroke-width:9.47px;"/>
            </g>
            <g transform="matrix(0.9,0,0,1.16667,342.52,-246.063)">
                <g transform="matrix(200,0,0,200,4388.05,1902.11)">
                </g>
                <text x="3643.45px" y="1902.11px" style="font-family:'HelveticaNeue', 'Helvetica Neue';font-size:200px;">Sampler</text>
            </g>
        </g>
        <g transform="matrix(1.11111,0,0,0.857143,1036.75,269.966)">
            <g transform="matrix(1,0,0,1.75,-472.441,-3277.56)">
                <path d="M4960.63,2834.65L4960.63,3070.87C4960.63,3136.05 4889.18,3188.98 4801.18,3188.98L4057.09,3188.98C3969.08,3188.98 3897.64,3136.05 3897.64,3070.87L3897.64,2834.65C3897.64,2769.46 3969.08,2716.53 4057.09,2716.53L4801.18,2716.53C4889.18,2716.53 4960.63,2769.46 4960.63,2834.65Z" style="fill:rgb(235,235,235);stroke:black;stroke-width:9.47px;"/>
            </g>
            <g transform="matrix(0.9,0,0,1.16667,342.52,-246.063)">
                <g transform="matrix(200,0,0,200,4441.75,1902.11)">
                </g>
                <text x="3589.75px" y="1902.11px" style="font-family:'HelveticaNeue', 'Helvetica Neue';font-size:200px;">Database</text>
            </g>
        </g>
        <g transform="matrix(1,0,0,1,-236.22,-413.386)">
            <g transform="matrix(1,0,0,1.25,0,-620.079)">
                <path d="M2716.53,1535.43L2716.53,2007.87C2716.53,2138.25 2584.23,2244.09 2421.26,2244.09L1122.05,2244.09C959.08,2244.09 826.772,2138.25 826.772,2007.87L826.772,1535.43C826.772,1405.06 959.08,1299.21 1122.05,1299.21L2421.26,1299.21C2584.23,1299.21 2716.53,1405.06 2716.53,1535.43Z" style="fill:rgb(235,235,235);stroke:black;stroke-width:11.04px;"/>
            </g>
            <g transform="matrix(1,0,0,1,236.22,-295.276)">
                <g transform="matrix(1,0,0,1,-236.22,236.22)">
                    <path d="M2598.43,1505.91L2598.43,1683.07C2598.43,1731.96 2558.73,1771.65 2509.84,1771.65L1269.68,1771.65C1220.8,1771.65 1181.1,1731.96 1181.1,1683.07L1181.1,1505.91C1181.1,1457.02 1220.8,1417.32 1269.68,1417.32L2509.84,1417.32C2558.73,1417.32 2598.43,1457.02 2598.43,1505.91Z" style="fill:white;stroke:black;stroke-width:8.33px;"/>
                </g>
                <g transform="matrix(1,0,0,1,-236.22,236.22)">
                    <path d="M2244.09,1771.65L2244.09,1417.32M2244.09,1417.32L2509.84,1417.32C2558.73,1417.32 2598.43,1457.02 2598.43,1505.91L2598.43,1683.07C2598.43,1731.96 2558.73,1771.65 2509.84,1771.65L2244.09,1771.65" style="fill:white;stroke:rgb(242,13,13);stroke-width:8.33px;stroke-linecap:square;"/>
                </g>
                <g transform="matrix(1,0,0,1,236.22,354.331)">
                    <text x="1855.89px" y="1458.06px" style="font-family:'HelveticaNeue', 'Helvetica Neue';font-size:116.667px;">OFI</text>
                    <g transform="matrix(116.667,0,0,116.667,2088.18,1577.99)">
                    </g>
                    <text x="1809.46px" y="1578px" style="font-family:'HelveticaNeue', 'Helvetica Neue';font-size:116.667px;">Hook</text>
                </g>
                <g transform="matrix(166.667,0,0,166.667,1888.49,1892.19)">
                </g>
                <text x="1064.27px" y="1892.19px" style="font-family:'SFMono-Regular', 'SF Mono', monospace;font-size:166.667px;">PID 1003</text>
            </g>
            <g transform="matrix(1,0,0,1,118.11,-118.11)">
                <g transform="matrix(1,0,0,1,-236.22,236.22)">
                    <path d="M2598.43,1505.91L2598.43,1683.07C2598.43,1731.96 2558.73,1771.65 2509.84,1771.65L1269.68,1771.65C1220.8,1771.65 1181.1,1731.96 1181.1,1683.07L1181.1,1505.91C1181.1,1457.02 1220.8,1417.32 1269.68,1417.32L2509.84,1417.32C2558.73,1417.32 2598.43,1457.02 2598.43,1505.91Z" style="fill:white;stroke:black;stroke-width:8.33px;"/>
                </g>
                <g transform="matrix(1,0,0,1,-236.22,236.22)">
                    <path d="M2244.09,1771.65L2244.09,1417.32M2244.09,1417.32L2509.84,1417.32C2558.73,1417.32 2598.43,1457.02 2598.43,1505.91L2598.43,1683.07C2598.43,1731.96 2558.73,1771.65 2509.84,1771.65L2244.09,1771.65" style="fill:white;stroke:rgb(242,13,13);stroke-width:8.33px;stroke-linecap:square;"/>
                </g>
                <g transform="matrix(1,0,0,1,236.22,354.331)">
                    <text x="1855.89px" y="1458.06px" style="font-family:'HelveticaNeue', 'Helvetica Neue';font-size:116.667px;">OFI</text>
                    <g transform="matrix(116.667,0,0,116.667,2088.18,1577.99)">
                    </g>
                    <text x="1809.46px" y="1578px" style="font-family:'HelveticaNeue', 'Helvetica Neue';font-size:116.667px;">Hook</text>
                </g>
                <g transform="matrix(166.667,0,0,166.667,1888.49,1892.19)">
                </g>
                <text x="1064.27px" y="1892.19px" style="font-family:'SFMono-Regular', 'SF Mono', monospace;font-size:166.667px;">PID 1002</text>
            </g>
            <g transform="matrix(1,0,0,1,0,59.0551)">
                <g transform="matrix(1,0,0,1,-236.22,236.22)">
                    <path d="M2598.43,1505.91L2598.43,1683.07C2598.43,1731.96 2558.73,1771.65 2509.84,1771.65L1269.68,1771.65C1220.8,1771.65 1181.1,1731.96 1181.1,1683.07L1181.1,1505.91C1181.1,1457.02 1220.8,1417.32 1269.68,1417.32L2509.84,1417.32C2558.73,1417.32 2598.43,1457.02 2598.43,1505.91Z" style="fill:white;stroke:black;stroke-width:8.33px;"/>
                </g>
                <g transform="matrix(1,0,0,1,-236.22,236.22)">
                    <path d="M2244.09,1771.65L2244.09,1417.32M2244.09,1417.32L2509.84,1417.32C2558.73,1417.32 2598.43,1457.02 2598.43,1505.91L2598.43,1683.07C2598.43,1731.96 2558.73,1771.65 2509.84,1771.65L2244.09,1771.65" style="fill:white;stroke:rgb(242,13,13);stroke-width:8.33px;stroke-linecap:square;"/>
                </g>
                <g transform="matrix(1,0,0,1,236.22,354.331)">
                    <text x="1855.89px" y="1458.06px" style="font-family:'HelveticaNeue', 'Helvetica Neue';font-size:116.667px;">OFI</text>
                    <g transform="matrix(116.667,0,0,116.667,2088.18,1577.99)">
                    </g>
                    <text x="1809.46px" y="1578px" style="font-family:'HelveticaNeue', 'Helvetica Neue';font-size:116.667px;">Hook</text>
                </g>
                <g transform="matrix(166.667,0,0,166.667,1888.49,1892.19)">
                </g>
                <text x="1064.27px" y="1892.19px" style="font-family:'SFMono-Regular', 'SF Mono', monospace;font-size:166.667px;">PID 1001</text>
            </g>
            <g transform="matrix(1,0,0,1,0,-118.11)">
                <g transform="matrix(200,0,0,200,2032.85,1370.61)">
                </g>
                <text x="1510.45px" y="1370.61px" style="font-family:'HelveticaNeue', 'Helvetica Neue';font-size:200px;">Job A</text>
            </g>
        </g>
        <g transform="matrix(1,0,0,1,-236.22,1003.94)">
            <g transform="matrix(1,0,0,1.25,0,-620.079)">
                <path d="M2716.53,1535.43L2716.53,2007.87C2716.53,2138.25 2584.23,2244.09 2421.26,2244.09L1122.05,2244.09C959.08,2244.09 826.772,2138.25 826.772,2007.87L826.772,1535.43C826.772,1405.06 959.08,1299.21 1122.05,1299.21L2421.26,1299.21C2584.23,1299.21 2716.53,1405.06 2716.53,1535.43Z" style="fill:rgb(235,235,235);stroke:black;stroke-width:11.04px;"/>
            </g>
            <g transform="matrix(1,0,0,1,236.22,59.0551)">
                <g transform="matrix(1,0,0,1,-236.22,236.22)">
                    <path d="M2598.43,1505.91L2598.43,1683.07C2598.43,1731.96 2558.73,1771.65 2509.84,1771.65L1269.68,1771.65C1220.8,1771.65 1181.1,1731.96 1181.1,1683.07L1181.1,1505.91C1181.1,1457.02 1220.8,1417.32 1269.68,1417.32L2509.84,1417.32C2558.73,1417.32 2598.43,1457.02 2598.43,1505.91Z" style="fill:white;stroke:black;stroke-width:8.33px;"/>
                </g>
                <g transform="matrix(1,0,0,1,-236.22,236.22)">
                    <path d="M2244.09,1771.65L2244.09,1417.32M2244.09,1417.32L2509.84,1417.32C2558.73,1417.32 2598.43,1457.02 2598.43,1505.91L2598.43,1683.07C2598.43,1731.96 2558.73,1771.65 2509.84,1771.65L2244.09,1771.65" style="fill:white;stroke:rgb(242,13,13);stroke-width:8.33px;stroke-linecap:square;"/>
                </g>
                <g transform="matrix(1,0,0,1,236.22,354.331)">
                    <text x="1855.89px" y="1458.06px" style="font-family:'HelveticaNeue', 'Helvetica Neue';font-size:116.667px;">OFI</text>
                    <g transform="matrix(116.667,0,0,116.667,2088.18,1577.99)">
                    </g>
                    <text x="1809.46px" y="1578px" style="font-family:'HelveticaNeue', 'Helvetica Neue';font-size:116.667px;">Hook</text>
                </g>
                <g transform="matrix(166.667,0,0,166.667,1888.49,1892.19)">
                </g>
                <text x="1064.27px" y="1892.19px" style="font-family:'SFMono-Regular', 'SF Mono', monospace;font-size:166.667px;">PID 2003</text>
            </g>
            <g transform="matrix(1,0,0,1,118.11,-118.11)">
                <g transform="matrix(1,0,0,1,-236.22,236.22)">
                    <path d="M2598.43,1505.91L2598.43,1683.07C2598.43,1731.96 2558.73,1771.65 2509.84,1771.65L1269.68,1771.65C1220.8,1771.65 1181.1,1731.96 1181.1,1683.07L1181.1,1505.91C1181.1,1457.02 1220.8,1417.32 1269.68,1417.32L2509.84,1417.32C2558.73,1417.32 2598.43,1457.02 2598.43,1505.91Z" style="fill:white;stroke:black;stroke-width:8.33px;"/>
                </g>
                <g transform="matrix(1,0,0,1,-236.22,236.22)">
                    <path d="M2244.09,1771.65L2244.09,1417.32M2244.09,1417.32L2509.84,1417.32C2558.73,1417.32 2598.43,1457.02 2598.43,1505.91L2598.43,1683.07C2598.43,1731.96 2558.73,1771.65 2509.84,1771.65L2244.09,1771.65" style="fill:white;stroke:rgb(242,13,13);stroke-width:8.33px;stroke-linecap:square;"/>
                </g>
                <g transform="matrix(1,0,0,1,236.22,354.331)">
                    <text x="1855.89px" y="1458.06px" style="font-family:'HelveticaNeue', 'Helvetica Neue';font-size:116.667px;">OFI</text>
                    <g transform="matrix(116.667,0,0,116.667,2088.18,1577.99)">
                    </g>
                    <text x="1809.46px" y="1578px" style="font-family:'HelveticaNeue', 'Helvetica Neue';font-size:116.667px;">Hook</text>
                </g>
                <g transform="matrix(166.667,0,0,166.667,1888.49,1892.19)">
                </g>
                <text x="1064.27px" y="1892.19px" style="font-family:'SFMono-Regular', 'SF Mono', monospace;font-size:166.667px;">PID 2002</text>
            </g>
            <g transform="matrix(1,0,0,1,2.27374e-13,-295.276)">
                <g transform="matrix(1,0,0,1,-236.22,236.22)">
                    <path d="M2598.43,1505.91L2598.43,1683.07C2598.43,1731.96 2558.73,1771.65 2509.84,1771.65L1269.68,1771.65C1220.8,1771.65 1181.1,1731.96 1181.1,1683.07L1181.1,1505.91C1181.1,1457.02 1220.8,1417.32 1269.68,1417.32L2509.84,1417.32C2558.73,1417.32 2598.43,1457.02 2598.43,1505.91Z" style="fill:white;stroke:black;stroke-width:8.33px;"/>
                </g>
                <g transform="matrix(1,0,0,1,-236.22,236.22)">
                    <path d="M2244.09,1771.65L2244.09,1417.32M2244.09,1417.32L2509.84,1417.32C2558.73,1417.32 2598.43,1457.02 2598.43,1505.91L2598.43,1683.07C2598.43,1731.96 2558.73,1771.65 2509.84,1771.65L2244.09,1771.65" style="fill:white;stroke:rgb(242,13,13);stroke-width:8.33px;stroke-linecap:square;"/>
                </g>
                <g transform="matrix(1,0,0,1,236.22,354.331)">
                    <text x="1855.89px" y="1458.06px" style="font-family:'HelveticaNeue', 'Helvetica Neue';font-size:116.667px;">OFI</text>
                    <g transform="matrix(116.667,0,0,116.667,2088.18,1577.99)">
                    </g>
                    <text x="1809.46px" y="1578px" style="font-family:'HelveticaNeue', 'Helvetica Neue';font-size:116.667px;">Hook</text>
                </g>
                <g transform="matrix(166.667,0,0,166.667,1888.49,1892.19)">
                </g>
                <text x="1064.27px" y="1892.19px" style="font-family:'SFMono-Regular', 'SF Mono', monospace;font-size:166.667px;">PID 2001</text>
            </g>
            <g transform="matrix(1,0,0,1,0,-118.11)">
                <g transform="matrix(200,0,0,200,2036.55,1370.61)">
                </g>
                <text x="1506.75px" y="1370.61px" style="font-family:'HelveticaNeue', 'Helvetica Neue';font-size:200px;">Job B</text>
            </g>
        </g>
        <g transform="matrix(1,0,0,1,-236.22,0)">
            <path d="M4718.16,472.441C4718.16,468.991 4720.96,466.191 4724.41,466.191C4727.86,466.191 4730.66,468.991 4730.66,472.441L4730.66,497.75C4730.66,501.2 4727.86,504 4724.41,504C4720.96,504 4718.16,501.2 4718.16,497.75L4718.16,472.441ZM4718.16,548.368C4718.16,544.919 4720.96,542.118 4724.41,542.118C4727.86,542.118 4730.66,544.919 4730.66,548.368L4730.66,598.987C4730.66,602.436 4727.86,605.237 4724.41,605.237C4720.96,605.237 4718.16,602.436 4718.16,598.987L4718.16,548.368ZM4718.16,649.608C4718.16,646.158 4720.96,643.358 4724.41,643.358C4727.86,643.358 4730.66,646.158 4730.66,649.608L4730.66,700.225C4730.66,703.675 4727.86,706.475 4724.41,706.475C4720.96,706.475 4718.16,703.675 4718.16,700.225L4718.16,649.608ZM4718.16,750.846C4718.16,747.397 4720.96,744.596 4724.41,744.596C4727.86,744.596 4730.66,747.397 4730.66,750.846L4730.66,801.467C4730.66,804.916 4727.86,807.717 4724.41,807.717C4720.96,807.717 4718.16,804.916 4718.16,801.467L4718.16,750.846ZM4718.16,852.082C4718.16,848.633 4720.96,845.832 4724.41,845.832C4727.86,845.832 4730.66,848.633 4730.66,852.082L4730.66,902.699C4730.66,906.149 4727.86,908.949 4724.41,908.949C4720.96,908.949 4718.16,906.149 4718.16,902.699L4718.16,852.082ZM4718.16,953.316C4718.16,949.866 4720.96,947.066 4724.41,947.066C4727.86,947.066 4730.66,949.866 4730.66,953.316L4730.66,1003.94C4730.66,1007.38 4727.86,1010.19 4724.41,1010.19C4720.96,1010.19 4718.16,1007.38 4718.16,1003.94L4718.16,953.316ZM4718.16,1054.56C4718.16,1051.11 4720.96,1048.31 4724.41,1048.31C4727.86,1048.31 4730.66,1051.11 4730.66,1054.56L4730.66,1105.18C4730.66,1108.63 4727.86,1111.43 4724.41,1111.43C4720.96,1111.43 4718.16,1108.63 4718.16,1105.18L4718.16,1054.56ZM4718.16,1155.8C4718.16,1152.35 4720.96,1149.55 4724.41,1149.55C4727.86,1149.55 4730.66,1152.35 4730.66,1155.8L4730.66,1206.42C4730.66,1209.87 4727.86,1212.67 4724.41,1212.67C4720.96,1212.67 4718.16,1209.87 4718.16,1206.42L4718.16,1155.8ZM4718.16,1257.03C4718.16,1253.58 4720.96,1250.78 4724.41,1250.78C4727.86,1250.78 4730.66,1253.58 4730.66,1257.03L4730.66,1307.65C4730.66,1311.1 4727.86,1313.9 4724.41,1313.9C4720.96,1313.9 4718.16,1311.1 4718.16,1307.65L4718.16,1257.03ZM4718.16,1358.27C4718.16,1354.82 4720.96,1352.02 4724.41,1352.02C4727.86,1352.02 4730.66,1354.82 4730.66,1358.27L4730.66,1408.89C4730.66,1412.34 4727.86,1415.14 4724.41,1415.14C4720.96,1415.14 4718.16,1412.34 4718.16,1408.89L4718.16,1358.27ZM4718.16,1459.51C4718.16,1456.06 4720.96,1453.26 4724.41,1453.26C4727.86,1453.26 4730.66,1456.06 4730.66,1459.51L4730.66,1510.12C4730.66,1513.57 4727.86,1516.37 4724.41,1516.37C4720.96,1516.37 4718.16,1513.57 4718.16,1510.12L4718.16,1459.51ZM4718.16,1560.75C4718.16,1557.3 4720.96,1554.5 4724.41,1554.5C4727.86,1554.5 4730.66,1557.3 4730.66,1560.75L4730.66,1611.37C4730.66,1614.82 4727.86,1617.62 4724.41,1617.62C4720.96,1617.62 4718.16,1614.82 4718.16,1611.37L4718.16,1560.75ZM4718.16,1661.98C4718.16,1658.53 4720.96,1655.73 4724.41,1655.73C4727.86,1655.73 4730.66,1658.53 4730.66,1661.98L4730.66,1712.6C4730.66,1716.05 4727.86,1718.85 4724.41,1718.85C4720.96,1718.85 4718.16,1716.05 4718.16,1712.6L4718.16,1661.98ZM4718.16,1763.22C4718.16,1759.77 4720.96,1756.97 4724.41,1756.97C4727.86,1756.97 4730.66,1759.77 4730.66,1763.22L4730.66,1813.84C4730.66,1817.28 4727.86,1820.09 4724.41,1820.09C4720.96,1820.09 4718.16,1817.28 4718.16,1813.84L4718.16,1763.22ZM4718.16,1864.46C4718.16,1861.01 4720.96,1858.21 4724.41,1858.21C4727.86,1858.21 4730.66,1861.01 4730.66,1864.46L4730.66,1915.08C4730.66,1918.53 4727.86,1921.33 4724.41,1921.33C4720.96,1921.33 4718.16,1918.53 4718.16,1915.08L4718.16,1864.46ZM4718.16,1965.69C4718.16,1962.24 4720.96,1959.44 4724.41,1959.44C4727.86,1959.44 4730.66,1962.24 4730.66,1965.69L4730.66,2016.31C4730.66,2019.76 4727.86,2022.56 4724.41,2022.56C4720.96,2022.56 4718.16,2019.76 4718.16,2016.31L4718.16,1965.69ZM4718.16,2066.93C4718.16,2063.48 4720.96,2060.68 4724.41,2060.68C4727.86,2060.68 4730.66,2063.48 4730.66,2066.93L4730.66,2117.55C4730.66,2121 4727.86,2123.8 4724.41,2123.8C4720.96,2123.8 4718.16,2121 4718.16,2117.55L4718.16,2066.93ZM4718.16,2168.17C4718.16,2164.72 4720.96,2161.92 4724.41,2161.92C4727.86,2161.92 4730.66,2164.72 4730.66,2168.17L4730.66,2218.79C4730.66,2222.24 4727.86,2225.04 4724.41,2225.04C4720.96,2225.04 4718.16,2222.24 4718.16,2218.79L4718.16,2168.17ZM4718.16,2269.4C4718.16,2265.95 4720.96,2263.15 4724.41,2263.15C4727.86,2263.15 4730.66,2265.95 4730.66,2269.4L4730.66,2320.02C4730.66,2323.47 4727.86,2326.27 4724.41,2326.27C4720.96,2326.27 4718.16,2323.47 4718.16,2320.02L4718.16,2269.4ZM4718.16,2370.64C4718.16,2367.19 4720.96,2364.39 4724.41,2364.39C4727.86,2364.39 4730.66,2367.19 4730.66,2370.64L4730.66,2421.26C4730.66,2424.71 4727.86,2427.51 4724.41,2427.51C4720.96,2427.51 4718.16,2424.71 4718.16,2421.26L4718.16,2370.64ZM4718.16,2471.88C4718.16,2468.43 4720.96,2465.62 4724.41,2465.62C4727.86,2465.62 4730.66,2468.43 4730.66,2471.88L4730.66,2522.49C4730.66,2525.94 4727.86,2528.74 4724.41,2528.74C4720.96,2528.74 4718.16,2525.94 4718.16,2522.49L4718.16,2471.88ZM4718.16,2573.12C4718.16,2569.67 4720.96,2566.87 4724.41,2566.87C4727.86,2566.87 4730.66,2569.67 4730.66,2573.12L4730.66,2623.74C4730.66,2627.18 4727.86,2629.99 4724.41,2629.99C4720.96,2629.99 4718.16,2627.18 4718.16,2623.74L4718.16,2573.12ZM4718.16,2674.35C4718.16,2670.9 4720.96,2668.1 4724.41,2668.1C4727.86,2668.1 4730.66,2670.9 4730.66,2674.35L4730.66,2724.97C4730.66,2728.42 4727.86,2731.22 4724.41,2731.22C4720.96,2731.22 4718.16,2728.42 4718.16,2724.97L4718.16,2674.35ZM4718.16,2775.59C4718.16,2772.14 4720.96,2769.34 4724.41,2769.34C4727.86,2769.34 4730.66,2772.14 4730.66,2775.59L4730.66,2826.21C4730.66,2829.66 4727.86,2832.46 4724.41,2832.46C4720.96,2832.46 4718.16,2829.66 4718.16,2826.21L4718.16,2775.59ZM4718.16,2876.83C4718.16,2873.38 4720.96,2870.58 4724.41,2870.58C4727.86,2870.58 4730.66,2873.38 4730.66,2876.83L4730.66,2927.45C4730.66,2930.89 4727.86,2933.7 4724.41,2933.7C4720.96,2933.7 4718.16,2930.89 4718.16,2927.45L4718.16,2876.83ZM4718.16,2978.07C4718.16,2974.62 4720.96,2971.82 4724.41,2971.82C4727.86,2971.82 4730.66,2974.62 4730.66,2978.07L4730.66,3028.68C4730.66,3032.13 4727.86,3034.93 4724.41,3034.93C4720.96,3034.93 4718.16,3032.13 4718.16,3028.68L4718.16,2978.07ZM4718.16,3079.3C4718.16,3075.85 4720.96,3073.05 4724.41,3073.05C4727.86,3073.05 4730.66,3075.85 4730.66,3079.3L4730.66,3129.92C4730.66,3133.37 4727.86,3136.17 4724.41,3136.17C4720.96,3136.17 4718.16,3133.37 4718.16,3129.92L4718.16,3079.3ZM4718.16,3180.54C4718.16,3177.09 4720.96,3174.29 4724.41,3174.29C4727.86,3174.29 4730.66,3177.09 4730.66,3180.54L4730.66,3231.16C4730.66,3234.61 4727.86,3237.41 4724.41,3237.41C4720.96,3237.41 4718.16,3234.61 4718.16,3231.16L4718.16,3180.54ZM4718.16,3281.78C4718.16,3278.33 4720.96,3275.53 4724.41,3275.53C4727.86,3275.53 4730.66,3278.33 4730.66,3281.78L4730.66,3307.09C4730.66,3310.54 4727.86,3313.34 4724.41,3313.34C4720.96,3313.34 4718.16,3310.54 4718.16,3307.09L4718.16,3281.78Z"/>
        </g>
        <g transform="matrix(1,0,0,1,-472.441,0)">
            <g transform="matrix(183.333,0,0,183.333,4799.87,656.001)">
            </g>
            <text x="3543.31px" y="656.001px" style="font-family:'HelveticaNeue', 'Helvetica Neue';font-size:183.333px;">Compute Node</text>
        </g>
        <g transform="matrix(1,0,0,1,944.882,1.13687e-13)">
            <g transform="matrix(183.333,0,0,183.333,4988.75,656.001)">
            </g>
            <text x="3712.02px" y="656.001px" style="font-family:'HelveticaNeue', 'Helvetica Neue';font-size:183.333px;">Database Node</text>
        </g>
        <g>
            <g transform="matrix(1,-0,-0,1,565,458)">
                <path d="M1628.5,980.878L1572.25,1018.38L1628.5,1055.88" style="fill:none;stroke:black;stroke-width:12.5px;stroke-linejoin:miter;stroke-miterlimit:10;"/>
                <path d="M2320.24,1394.26L2376.49,1431.76L2320.24,1469.26" style="fill:none;stroke:black;stroke-width:12.5px;stroke-linejoin:miter;stroke-miterlimit:10;"/>
                <path d="M1572.25,1018.38L2151.53,1018.38L2151.53,1431.76L2376.49,1431.76" style="fill:none;stroke:black;stroke-width:12.5px;"/>
            </g>
            <g transform="matrix(1,-0,-0,1,565,458)">
                <path d="M1746.61,803.713L1690.36,841.213L1746.61,878.713" style="fill:none;stroke:black;stroke-width:12.5px;stroke-linejoin:miter;stroke-miterlimit:10;"/>
                <path d="M1690.36,841.213L2151.53,841.213L2151.53,1018.38" style="fill:none;stroke:black;stroke-width:12.5px;"/>
            </g>
            <g transform="matrix(1,-0,-0,1,565,458)">
                <path d="M1864.72,626.547L1808.47,664.047L1864.72,701.547" style="fill:none;stroke:black;stroke-width:12.5px;stroke-linejoin:miter;stroke-miterlimit:10;"/>
                <path d="M1808.47,664.047L2151.53,664.047L2151.53,841.213" style="fill:none;stroke:black;stroke-width:12.5px;"/>
            </g>
        </g>
        <g>
            <g transform="matrix(1,-0,-0,1,565,458)">
                <path d="M1864.72,2398.2L1808.47,2435.7L1864.72,2473.2" style="fill:none;stroke:black;stroke-width:12.5px;stroke-linejoin:miter;stroke-miterlimit:10;"/>
                <path d="M1808.47,2435.7L2151.53,2435.7L2151.53,1431.76" style="fill:none;stroke:black;stroke-width:12.5px;"/>
            </g>
            <g transform="matrix(1,-0,-0,1,565,458)">
                <path d="M1746.61,2221.03L1690.36,2258.53L1746.61,2296.03" style="fill:none;stroke:black;stroke-width:12.5px;stroke-linejoin:miter;stroke-miterlimit:10;"/>
                <path d="M1690.36,2258.53L2151.53,2258.53" style="fill:none;stroke:black;stroke-width:12.5px;"/>
            </g>
            <g transform="matrix(1,0,0,1,-4.54747e-13,59.0551)">
                <g transform="matrix(1,-0,-0,1,565,398.945)">
                    <path d="M1628.5,2043.87L1572.25,2081.37L1628.5,2118.87" style="fill:none;stroke:black;stroke-width:12.5px;stroke-linejoin:miter;stroke-miterlimit:10;"/>
                    <path d="M1572.25,2081.37L2151.53,2081.37" style="fill:none;stroke:black;stroke-width:12.5px;"/>
                </g>
            </g>
        </g>
        <g transform="matrix(0.75,0,0,1,1033.46,0)">
            <g transform="matrix(1.33333,-0,-0,1,-624.619,458)">
                <path d="M3628.54,1398.62L3578.82,1431.76L3628.54,1464.91" style="fill:none;stroke:black;stroke-width:11.05px;stroke-linejoin:miter;stroke-miterlimit:10;"/>
                <path d="M4217.84,1398.62L4267.56,1431.76L4217.84,1464.91" style="fill:none;stroke:black;stroke-width:11.05px;stroke-linejoin:miter;stroke-miterlimit:10;"/>
                <path d="M3578.82,1431.76L4267.56,1431.76" style="fill:none;stroke:black;stroke-width:11.05px;"/>
            </g>
        </g>
    </g>
</svg>
