<?xml version="1.0" encoding="UTF-8" standalone="no"?>
<!DOCTYPE svg PUBLIC "-//W3C//DTD SVG 1.1//EN" "http://www.w3.org/Graphics/SVG/1.1/DTD/svg11.dtd">
<svg width="100%" height="100%" viewBox="0 0 2688 1736" version="1.1" xmlns="http://www.w3.org/2000/svg" xmlns:xlink="http://www.w3.org/1999/xlink" xml:space="preserve" xmlns:serif="http://www.serif.com/" style="fill-rule:evenodd;clip-rule:evenodd;stroke-linecap:round;stroke-linejoin:round;stroke-miterlimit:1.5;">
    <g transform="matrix(1,0,0,1,-281,-519)">
        <g transform="matrix(1,0,0,1,59.0551,70.8661)">
            <g transform="matrix(0.916667,0,0,0.90625,19.685,246.555)">
                <path d="M1653.54,384.058L1653.54,1978.15C1653.54,2059.74 1588.05,2125.98 1507.39,2125.98L382.378,2125.98C301.711,2125.98 236.22,2059.74 236.22,1978.15L236.22,384.058C236.22,302.464 301.711,236.22 382.378,236.22L1507.39,236.22C1588.05,236.22 1653.54,302.464 1653.54,384.058Z" style="fill:rgb(235,235,235);stroke:black;stroke-width:9.14px;"/>
            </g>
            <g transform="matrix(1,0,0,1,-59.0551,-70.8661)">
                <g transform="matrix(1,-0,-0,1,281,519)">
                    <path d="M673.257,321.566L663.882,312.191L654.507,321.566" style="fill:none;stroke:black;stroke-width:6.25px;stroke-linejoin:miter;stroke-miterlimit:10;"/>
                    <path d="M673.257,353.032L663.882,362.407L654.507,353.032" style="fill:none;stroke:black;stroke-width:6.25px;stroke-linejoin:miter;stroke-miterlimit:10;"/>
                    <path d="M663.882,312.191L663.882,362.407" style="fill:none;stroke:black;stroke-width:6.25px;"/>
                </g>
            </g>
            <g transform="matrix(1,0,0,1,-59.0551,-70.8661)">
                <g transform="matrix(1,-0,-0,1,281,519)">
                    <path d="M673.257,557.787L663.882,548.412L654.507,557.787" style="fill:none;stroke:black;stroke-width:6.25px;stroke-linejoin:miter;stroke-miterlimit:10;"/>
                    <path d="M673.257,589.253L663.882,598.628L654.507,589.253" style="fill:none;stroke:black;stroke-width:6.25px;stroke-linejoin:miter;stroke-miterlimit:10;"/>
                    <path d="M663.882,548.412L663.882,598.628" style="fill:none;stroke:black;stroke-width:6.25px;"/>
                </g>
            </g>
            <g transform="matrix(1,0,0,1,-59.0551,-70.8661)">
                <g transform="matrix(1,-0,-0,1,281,519)">
                    <path d="M673.257,853.062L663.882,843.687L654.507,853.062" style="fill:none;stroke:black;stroke-width:6.25px;stroke-linejoin:miter;stroke-miterlimit:10;"/>
                    <path d="M673.257,1179.8L663.882,1189.18L654.507,1179.8" style="fill:none;stroke:black;stroke-width:6.25px;stroke-linejoin:miter;stroke-miterlimit:10;"/>
                    <path d="M663.882,843.687L663.882,1189.18" style="fill:none;stroke:black;stroke-width:6.25px;"/>
                </g>
            </g>
            <g transform="matrix(1,0,0,1,-59.0551,-70.8661)">
                <g transform="matrix(1,-0,-0,1,281,519)">
                    <path d="M673.257,1384.56L663.882,1375.18L654.507,1384.56" style="fill:none;stroke:black;stroke-width:6.25px;stroke-linejoin:miter;stroke-miterlimit:10;"/>
                    <path d="M673.257,1416.02L663.882,1425.4L654.507,1416.02" style="fill:none;stroke:black;stroke-width:6.25px;stroke-linejoin:miter;stroke-miterlimit:10;"/>
                    <path d="M663.882,1375.18L663.882,1425.4" style="fill:none;stroke:black;stroke-width:6.25px;"/>
                </g>
            </g>
            <g transform="matrix(0.865385,0,0,0.75,68.1405,531.496)">
                <g transform="matrix(1.04,0,0,1,-13.2283,47.2441)">
                    <path d="M1511.81,1807.09L1511.81,1925.2C1511.81,1957.79 1489.76,1984.25 1462.6,1984.25L379.921,1984.25C352.76,1984.25 330.709,1957.79 330.709,1925.2L330.709,1807.09C330.709,1774.49 352.76,1748.03 379.921,1748.03L1462.6,1748.03C1489.76,1748.03 1511.81,1774.49 1511.81,1807.09Z" style="fill:white;stroke:black;stroke-width:7.54px;"/>
                </g>
                <g transform="matrix(1.15556,0,0,1.33333,-51.4436,-598.425)">
                    <g transform="matrix(100,0,0,100,947.355,1919.56)">
                    </g>
                    <text x="777.055px" y="1919.56px" style="font-family:'HelveticaNeue', 'Helvetica Neue';font-size:100px;">NIC</text>
                </g>
            </g>
            <g transform="matrix(0.865385,0,0,0.9375,68.1405,-85.6299)">
                <g transform="matrix(1.04,0,0,0.8,-13.2283,444.094)">
                    <path d="M1511.81,1807.09L1511.81,1925.2C1511.81,1957.79 1489.76,1984.25 1462.6,1984.25L379.921,1984.25C352.76,1984.25 330.709,1957.79 330.709,1925.2L330.709,1807.09C330.709,1774.49 352.76,1748.03 379.921,1748.03L1462.6,1748.03C1489.76,1748.03 1511.81,1774.49 1511.81,1807.09Z" style="fill:white;stroke:black;stroke-width:7.54px;"/>
                </g>
                <g transform="matrix(1.15556,0,0,1.06667,-51.4436,-72.4409)">
                    <g transform="matrix(100,0,0,100,1087.15,1919.56)">
                    </g>
                    <text x="637.255px" y="1919.56px" style="font-family:'HelveticaNeue', 'Helvetica Neue';font-size:100px;">NIC driver</text>
                </g>
            </g>
            <g transform="matrix(0.865385,0,0,1.85462,68.1405,-2363.42)">
                <g transform="matrix(1.04,0,0,0.533333,-13.2283,910.236)">
                    <path d="M1511.81,1807.09L1511.81,1925.2C1511.81,1957.79 1482.73,1984.25 1446.91,1984.25L395.612,1984.25C359.791,1984.25 330.709,1957.79 330.709,1925.2L330.709,1807.09C330.709,1774.49 359.791,1748.03 395.612,1748.03L1446.91,1748.03C1482.73,1748.03 1511.81,1774.49 1511.81,1807.09Z" style="fill:white;stroke:black;stroke-width:6.61px;"/>
                </g>
                <g transform="matrix(1.15556,0,0,0.539194,-51.4436,874.518)">
                    <g transform="matrix(100,0,0,100,1039.95,1947.8)">
                    </g>
                    <text x="684.455px" y="1947.8px" style="font-family:'HelveticaNeue', 'Helvetica Neue';font-size:100px;">libfabric</text>
                </g>
            </g>
            <g transform="matrix(0.865385,0,0,0.9375,68.1405,-912.402)">
                <g transform="matrix(1.04,0,0,0.8,-13.2283,444.094)">
                    <path d="M1511.81,1807.09L1511.81,1925.2C1511.81,1957.79 1489.76,1984.25 1462.6,1984.25L379.921,1984.25C352.76,1984.25 330.709,1957.79 330.709,1925.2L330.709,1807.09C330.709,1774.49 352.76,1748.03 379.921,1748.03L1462.6,1748.03C1489.76,1748.03 1511.81,1774.49 1511.81,1807.09Z" style="fill:white;stroke:black;stroke-width:7.54px;"/>
                </g>
                <g transform="matrix(1.15556,0,0,1.06667,-51.4436,-72.4409)">
                    <g transform="matrix(100,0,0,100,951.105,1919.56)">
                    </g>
                    <text x="773.305px" y="1919.56px" style="font-family:'HelveticaNeue', 'Helvetica Neue';font-size:100px;">MPI</text>
                </g>
            </g>
            <g transform="matrix(0.865385,0,0,0.94375,68.1405,-1160.14)">
                <g transform="matrix(1.04,0,0,0.8,-13.2283,444.094)">
                    <path d="M1511.81,1807.09L1511.81,1925.2C1511.81,1957.79 1489.61,1984.25 1462.27,1984.25L380.249,1984.25C352.907,1984.25 330.709,1957.79 330.709,1925.2L330.709,1807.09C330.709,1774.49 352.907,1748.03 380.249,1748.03L1462.27,1748.03C1489.61,1748.03 1511.81,1774.49 1511.81,1807.09Z" style="fill:white;stroke:black;stroke-width:7.52px;"/>
                </g>
                <g transform="matrix(1.15556,0,0,1.0596,-51.4436,-59.7591)">
                    <g transform="matrix(100,0,0,100,1113.15,1920.15)">
                    </g>
                    <text x="611.255px" y="1920.15px" style="font-family:'HelveticaNeue', 'Helvetica Neue';font-size:100px;">Application</text>
                </g>
            </g>
            <g transform="matrix(0.892857,0,0,1,30.3712,0)">
                <g transform="matrix(1,0,0,1,1.13687e-13,-94.4882)">
                    <path d="M283.465,1559.06L1606.3,1559.06" style="fill:none;stroke:black;stroke-width:10.99px;stroke-dasharray:21.98,43.95,0,0,0,0;"/>
                </g>
                <g transform="matrix(1,0,0,1,79.52,0)">
                    <g transform="matrix(1.12,0,0,1,-34.0157,0)">
                        <g transform="matrix(75,0,0,75,690.415,1559.06)">
                        </g>
                        <text x="283.465px" y="1559.06px" style="font-family:'HelveticaNeue', 'Helvetica Neue';font-size:75px;">ker<tspan x="388.99px 430.69px " y="1559.06px 1559.06px ">ne</tspan>lspace</text>
                    </g>
                    <g transform="matrix(1.12,0,0,1,-34.0157,-106.744)">
                        <g transform="matrix(75,0,0,75,630.715,1518.12)">
                        </g>
                        <text x="283.465px" y="1518.12px" style="font-family:'HelveticaNeue', 'Helvetica Neue';font-size:75px;">userspace</text>
                    </g>
                </g>
            </g>
        </g>
        <g transform="matrix(0.884615,0,0,1.875,1490.91,-2768.4)">
            <g transform="matrix(0.96087,0,0,1.86667,199.863,-1345.57)">
                <path d="M1511.81,1775.95L1511.81,1956.33C1511.81,1971.74 1460.3,1984.25 1396.85,1984.25L445.669,1984.25C382.221,1984.25 330.709,1971.74 330.709,1956.33L330.709,1775.95C330.709,1760.54 382.221,1748.03 445.669,1748.03L1396.85,1748.03C1460.3,1748.03 1511.81,1760.54 1511.81,1775.95Z" style="fill:rgb(246,246,246);stroke:black;stroke-width:2.45px;"/>
            </g>
            <g transform="matrix(0.986842,0,0,1,-31.8384,43.4098)">
                <g transform="matrix(2.26087,0,0,0.592593,-3861.69,1303.59)">
                    <path d="M2433.07,1494.09L2433.07,1600.39C2433.07,1629.73 2419.66,1653.54 2403.15,1653.54L2014.17,1653.54C1997.66,1653.54 1984.25,1629.73 1984.25,1600.39L1984.25,1494.09C1984.25,1464.76 1997.66,1440.94 2014.17,1440.94L2403.15,1440.94C2419.66,1440.94 2433.07,1464.76 2433.07,1494.09Z" style="fill:white;stroke:black;stroke-width:3.9px;"/>
                </g>
                <g transform="matrix(1.14551,0,0,0.533333,-1648.53,1401.57)">
                    <g transform="matrix(100,0,0,100,2722.57,1571.13)">
                    </g>
                    <text x="2131.76px" y="1571.13px" style="font-family:'HelveticaNeue', 'Helvetica Neue';font-size:100px;">cor<tspan x="2274.37px 2328.07px " y="1571.13px 1571.13px ">e </tspan>pr<tspan x="2446.66px 2504.07px " y="1571.13px 1571.13px ">ov</tspan>ider</text>
                </g>
            </g>
            <g transform="matrix(0.986842,0,0,0.75,-31.8384,456.796)">
                <g transform="matrix(2.26087,0,0,0.592593,-3861.69,1303.59)">
                    <path d="M2433.07,1494.09L2433.07,1600.39C2433.07,1629.73 2423.01,1653.54 2410.63,1653.54L2006.69,1653.54C1994.31,1653.54 1984.25,1629.73 1984.25,1600.39L1984.25,1494.09C1984.25,1464.76 1994.31,1440.94 2006.69,1440.94L2410.63,1440.94C2423.01,1440.94 2433.07,1464.76 2433.07,1494.09Z" style="fill:white;stroke:rgb(89,89,89);stroke-width:4.13px;stroke-dasharray:8.25,8.25,0,0,0,0;"/>
                </g>
                <g transform="matrix(1.14551,0,0,0.711111,-1648.53,1149.61)">
                    <g transform="matrix(100,0,0,100,2742.02,1541.61)">
                    </g>
                    <text x="2112.32px" y="1541.61px" style="font-family:'HelveticaNeue', 'Helvetica Neue';font-size:100px;fill:rgb(89,89,89);">utility pr<tspan x="2466.12px 2523.51px " y="1541.61px 1541.61px ">ov</tspan>ider</text>
                </g>
            </g>
            <g transform="matrix(0.986842,0,0,0.75,-31.8384,330.811)">
                <g transform="matrix(2.26087,0,0,0.592593,-3861.69,1303.59)">
                    <path d="M2433.07,1494.09L2433.07,1600.39C2433.07,1629.73 2423.01,1653.54 2410.63,1653.54L2006.69,1653.54C1994.31,1653.54 1984.25,1629.73 1984.25,1600.39L1984.25,1494.09C1984.25,1464.76 1994.31,1440.94 2006.69,1440.94L2410.63,1440.94C2423.01,1440.94 2433.07,1464.76 2433.07,1494.09Z" style="fill:white;stroke:rgb(242,13,13);stroke-width:4.13px;"/>
                </g>
                <g transform="matrix(1.14551,0,0,0.711111,-1648.53,1149.61)">
                    <g transform="matrix(100,0,0,100,2735.57,1541.61)">
                    </g>
                    <text x="2118.76px" y="1541.61px" style="font-family:'HelveticaNeue', 'Helvetica Neue';font-size:100px;">hook pr<tspan x="2459.66px 2517.07px " y="1541.61px 1541.61px ">ov</tspan>ider</text>
                </g>
            </g>
            <g transform="matrix(1.13043,0,0,0.533333,-1685.38,1476.48)">
                <g transform="matrix(1,-0,-0,1,281,519)">
                    <path d="M2160.41,1089.28L2169.79,1079.91L2179.16,1089.28" style="fill:none;stroke:black;stroke-width:6.25px;stroke-linejoin:miter;stroke-miterlimit:10;"/>
                    <path d="M2169.79,1134.54L2169.79,1079.91" style="fill:none;stroke:black;stroke-width:6.25px;"/>
                </g>
            </g>
            <g transform="matrix(1.13043,0,0,0.533333,-1718.76,1429.24)">
                <g transform="matrix(1,-0,-0,1,310.528,607.583)">
                    <path d="M2160.41,825.473L2169.79,834.848L2179.16,825.473" style="fill:none;stroke:black;stroke-width:6.25px;stroke-linejoin:miter;stroke-miterlimit:10;"/>
                    <path d="M2160.41,794.007L2169.79,784.632L2179.16,794.007" style="fill:none;stroke:black;stroke-width:6.25px;stroke-linejoin:miter;stroke-miterlimit:10;"/>
                    <path d="M2169.79,834.848C2169.79,823.894 2169.79,795.586 2169.79,784.632" style="fill:none;stroke:black;stroke-width:6.25px;"/>
                </g>
            </g>
            <g transform="matrix(1.13043,0,0,0.533333,-1718.76,1429.24)">
                <g transform="matrix(1,-0,-0,1,310.528,607.583)">
                    <path d="M2160.41,589.253L2169.79,598.628L2179.16,589.253" style="fill:none;stroke:black;stroke-width:6.25px;stroke-linejoin:miter;stroke-miterlimit:10;"/>
                    <path d="M2160.41,557.787L2169.79,548.412L2179.16,557.787" style="fill:none;stroke:black;stroke-width:6.25px;stroke-linejoin:miter;stroke-miterlimit:10;"/>
                    <path d="M2169.79,598.628L2169.79,548.412" style="fill:none;stroke:black;stroke-width:6.25px;"/>
                </g>
            </g>
            <g transform="matrix(1.13043,0,0,0.533333,-1685.38,1476.48)">
                <g transform="matrix(1,-0,-0,1,281,519)">
                    <path d="M2160.41,353.032L2169.79,362.407L2179.16,353.032" style="fill:none;stroke:black;stroke-width:6.25px;stroke-linejoin:miter;stroke-miterlimit:10;"/>
                    <path d="M2169.79,362.407L2169.79,307.772" style="fill:none;stroke:black;stroke-width:6.25px;"/>
                </g>
            </g>
        </g>
        <path d="M1460.04,1342.44L1994.33,1638.4" style="fill:none;stroke:black;stroke-width:6.25px;"/>
        <g transform="matrix(1,0,0,1,69.0945,40.1575)">
            <path d="M1390.94,1101.56C1390.94,1101.56 1924.64,801.724 1925.23,801.724" style="fill:none;stroke:black;stroke-width:6.25px;"/>
        </g>
    </g>
</svg>
